<svg width="22" height="20" viewBox="0 0 22 20" fill="none" xmlns="http://www.w3.org/2000/svg">
<path fill-rule="evenodd" clip-rule="evenodd" d="M19.2444 3.38888C17.5625 1.74892 14.8243 1.74729 13.1403 3.38401L10.9911 5.52247L8.82016 3.40566C7.13407 1.7453 4.40014 1.75273 2.74406 3.3837L2.73878 3.3889C1.93084 4.1767 1.5 5.21794 1.5 6.34386C1.5 7.45428 1.94247 8.50355 2.74468 9.3046L10.9804 17.3351L19.2444 9.27693C20.9215 7.64161 20.9138 5.00059 19.2497 3.39405L19.2444 3.38888ZM10.9804 19.4153L1.6841 10.3507C0.606277 9.27782 0 7.85463 0 6.34386C0 4.83309 0.583822 3.4099 1.6841 2.33703C3.92957 0.125612 7.61215 0.125612 9.88007 2.35893L10.9804 3.43179L12.0806 2.33703C14.3486 0.125612 18.0311 0.125612 20.2991 2.33703C22.567 4.52655 22.567 8.11737 20.2991 10.3288L10.9804 19.4153Z" fill="black"/>
</svg>
